<?xml version="1.0" encoding="utf-8"?>
<!-- Generator: Adobe Illustrator 16.0.0, SVG Export Plug-In . SVG Version: 6.00 Build 0)  -->
<!DOCTYPE svg PUBLIC "-//W3C//DTD SVG 1.1//EN" "http://www.w3.org/Graphics/SVG/1.1/DTD/svg11.dtd">
<svg version="1.1" id="Layer_1" xmlns="http://www.w3.org/2000/svg" xmlns:xlink="http://www.w3.org/1999/xlink" x="0px" y="0px"
	 width="31.338px" height="24.442px" viewBox="0 0 31.338 24.442" enable-background="new 0 0 31.338 24.442" xml:space="preserve">
<g>
	<g>
		<path fill="#FFFFFF" d="M31.062,7.1c-0.592-0.956-1.911-1.202-2.17-1.241l-0.101-0.01c-0.018-0.001-0.269-0.013-0.69-0.033
			c0.46,0.524,0.613,1.231,0.483,1.957c0.019,0,0.044,0.002,0.059,0.003c0.271,0.05,0.649,0.201,0.759,0.318
			C29.4,8.1,29.397,8.107,29.395,8.116c-0.412,1.286-2.454,8.074-2.541,8.362l-0.026,0.112c-0.001,0.004-0.324,0.525-1.636,0.704
			c-2.077,0.283-12.999,1.298-14.335,1.421c-0.268-0.06-0.876-0.264-0.893-0.874c-0.039-1.448-0.746-7.832-0.91-9.296l-0.01-0.751
			C9.07,7.711,9.11,7.624,9.176,7.541c0.281-0.35,0.923-0.557,1.819-0.596c-0.232-0.239-0.438-0.515-0.604-0.825
			c-0.174-0.324-0.316-0.664-0.41-1.004C9.419,5.214,8.935,5.382,8.526,5.615C8.489,5.595,8.459,5.568,8.42,5.552L1.328,2.696
			C0.834,2.498,0.27,2.736,0.07,3.231c-0.199,0.495,0.04,1.057,0.534,1.257l6.498,2.616l0.007,0.498
			C7.042,8.018,7.08,8.357,7.105,8.505c0.063,0.564,0.888,7.916,0.927,9.388c0.052,1.899,1.755,2.632,2.649,2.754l0.109,0.015
			l0.109-0.01c0.502-0.046,12.308-1.138,14.552-1.442c2.602-0.355,3.154-1.791,3.258-2.197c0.133-0.442,2.129-7.073,2.524-8.307
			C31.417,8.134,31.357,7.579,31.062,7.1z"/>
		<circle fill="#FFFFFF" cx="13.662" cy="22.416" r="1.673"/>
		<circle fill="#FFFFFF" cx="23.158" cy="22.416" r="2.026"/>
	</g>
</g>
</svg>
