<?xml version="1.0" encoding="utf-8"?>
<!-- Generator: Adobe Illustrator 16.0.0, SVG Export Plug-In . SVG Version: 6.00 Build 0)  -->
<!DOCTYPE svg PUBLIC "-//W3C//DTD SVG 1.1//EN" "http://www.w3.org/Graphics/SVG/1.1/DTD/svg11.dtd">
<svg version="1.1" id="Layer_1" xmlns="http://www.w3.org/2000/svg" xmlns:xlink="http://www.w3.org/1999/xlink" x="0px" y="0px"
	 width="266px" height="128px" viewBox="0 0 266 128" enable-background="new 0 0 266 128" xml:space="preserve">
<g>
	<g>
		<path fill="#FFFFFF" d="M160.061,63.855c-0.592-0.956-1.911-1.202-2.17-1.241l-0.101-0.01c-0.018-0.001-0.269-0.013-0.69-0.033
			c0.46,0.524,0.613,1.231,0.483,1.957c0.019,0,0.044,0.002,0.059,0.003c0.271,0.05,0.649,0.201,0.759,0.318
			c-0.001,0.006-0.004,0.013-0.007,0.021c-0.412,1.286-2.454,8.074-2.541,8.362l-0.026,0.112c-0.001,0.004-0.324,0.525-1.636,0.704
			c-2.077,0.283-12.999,1.298-14.335,1.421c-0.268-0.06-0.876-0.264-0.893-0.874c-0.039-1.448-0.746-7.832-0.91-9.296l-0.01-0.751
			c0.026-0.083,0.066-0.17,0.132-0.253c0.281-0.35,0.923-0.557,1.819-0.596c-0.232-0.239-0.438-0.515-0.604-0.825
			c-0.174-0.324-0.316-0.664-0.41-1.004c-0.563,0.099-1.047,0.266-1.455,0.499c-0.037-0.02-0.067-0.046-0.106-0.063l-7.092-2.856
			c-0.494-0.199-1.059,0.04-1.258,0.535c-0.199,0.495,0.04,1.057,0.534,1.257l6.498,2.616l0.007,0.498
			c-0.067,0.416-0.029,0.755-0.004,0.903c0.063,0.564,0.888,7.916,0.927,9.388c0.052,1.899,1.755,2.632,2.649,2.754l0.109,0.015
			l0.109-0.01c0.502-0.046,12.308-1.138,14.552-1.442c2.602-0.355,3.154-1.791,3.258-2.197c0.133-0.442,2.129-7.073,2.524-8.307
			C160.416,64.889,160.356,64.334,160.061,63.855z"/>
		<circle fill="#FFFFFF" cx="142.661" cy="79.171" r="1.673"/>
		<circle fill="#FFFFFF" cx="152.157" cy="79.171" r="2.026"/>
	</g>
</g>
<g>
	<rect fill="#F9A61C" width="266" height="128"/>
	<g>
		<g>
			<path fill="#FFFFFF" d="M35.125,86.128l0.004,0.001l-0.004,0.129l-0.01,0.284l-0.009-0.005c-0.051,0.853-0.186,1.572-0.408,2.179
				l0.021-0.001l-0.122,0.281l-0.048,0.109h-0.007c-0.257,0.555-0.589,1.006-1.02,1.365c-0.935,0.786-2.215,0.973-3.343,1.137
				c-1.411,0.205-2.856,0.371-4.295,0.371c-1.455,0-2.903-0.17-4.299-0.637c-1.695-0.566-2.957-1.57-3.668-2.902l-0.008,0.002
				l-0.066-0.131l-0.11-0.223l0.016-0.003c-0.326-0.734-0.5-1.542-0.5-2.413c0-1.068,0.198-1.999,0.584-2.777l-0.01-0.002
				l0.124-0.219l0.071-0.127l0.006,0.001c0.238-0.392,0.523-0.739,0.856-1.03c1.494-1.313,3.463-1.555,5.012-1.619
				c0.125-0.005,0.258-0.009,0.394-0.014c1.241-0.038,2.938-0.091,3.607-1.182c0.217-0.354,0.29-0.66,0.216-0.915
				c-0.07-0.241-0.273-0.446-0.607-0.61h-0.002c-0.361-0.178-0.854-0.297-1.388-0.332c-0.399-0.029-0.813-0.006-1.268,0.07
				c-0.64,0.106-1.274,0.309-1.887,0.502c-0.744,0.237-1.513,0.48-2.328,0.574c-0.728,0.082-1.38-0.141-1.837-0.631
				c-0.506-0.542-0.716-1.36-0.563-2.188c0.387-2.093,2.362-3.34,5.283-3.34c0.01,0,0.02,0,0.029,0
				c0.799,0.003,1.573,0.036,2.304,0.101c2.921,0.259,5.059,1.027,6.538,2.34l0.007-0.004l0.103,0.096l0.189,0.176l-0.009,0.006
				c0.447,0.444,0.825,0.938,1.12,1.475c0.517,0.948,0.867,2.027,1.078,3.279l0.007-0.004l0.035,0.23l0.022,0.154l-0.004,0.002
				c0.13,0.926,0.184,1.928,0.153,2.988c-0.014,0.486,0.003,1.02,0.021,1.582C35.125,84.866,35.143,85.497,35.125,86.128z
				 M23.284,85.48c0,0.555,0.201,0.98,0.614,1.301c0.368,0.286,0.962,0.449,1.768,0.486c0.118,0.006,0.24,0.008,0.366,0.007h0.021
				l0.021,0.005c0.635,0.136,1.311-0.039,1.852-0.479c0.533-0.432,0.85-1.051,0.849-1.653c0-0.095-0.01-0.187-0.028-0.271
				c-0.433-1.033-1.406-1.073-2.347-1.112l-0.103-0.004l-0.476,0.039c-0.78,0.073-1.415,0.251-1.886,0.527
				C23.496,84.586,23.283,84.962,23.284,85.48z"/>
			<path fill="#FFFFFF" d="M55.022,89.197l0.001,0.008l-0.055,0.059c-0.001,0.002-0.003,0.003-0.005,0.006l-0.302,0.33l-0.002-0.034
				c-0.061,0.055-0.123,0.108-0.186,0.155c-0.074,0.057-0.149,0.108-0.229,0.158c-0.321,0.205-0.676,0.387-1.076,0.551l0.011,0.006
				l-0.375,0.136l-0.086,0.031l-0.002-0.001c-0.958,0.338-2.074,0.553-3.504,0.676c-0.669,0.059-1.311,0.088-1.924,0.088
				c-3.341,0-5.835-0.86-7.429-2.566c-2.172-2.324-2.051-5.397-1.933-8.371c0.039-0.987,0.076-1.92,0.033-2.83
				c-0.013-0.293-0.044-0.616-0.077-0.957c-0.135-1.422-0.305-3.191,0.658-4.264c0.821-0.914,2.262-0.985,3.244-0.77
				c0.23,0.05,0.446,0.126,0.658,0.223l0.007-0.004l0.097,0.049c0,0,0.001,0,0.002,0l0.302,0.149l-0.025,0.016
				c0.926,0.594,1.461,1.684,1.542,3.186c0.012,0.214,0.014,0.429,0.018,0.644l0.006-0.001l0,0.243l0.001,0.15h-0.004
				c-0.005,1.065-0.091,2.146-0.178,3.193c-0.071,0.856-0.145,1.744-0.169,2.608c-0.031,1.049,0.083,1.875,0.35,2.528
				c0.282,0.692,0.726,1.186,1.36,1.512c0.6,0.311,1.393,0.463,2.074,0.402c0.561-0.049,1.027-0.237,1.346-0.547
				c0.713-0.688,0.768-1.859,0.762-3c-0.005-0.986-0.062-1.992-0.117-2.965c-0.063-1.111-0.128-2.262-0.116-3.397l0.002-0.325
				c0.008-1.717,0.02-4.068,2.142-4.602c0.964-0.24,2.104-0.012,2.963,0.576l0.008-0.009l0.145,0.111l0.159,0.121l-0.006,0.005
				c0.481,0.416,0.796,0.932,0.91,1.506c0.119,0.596,0.188,1.233,0.216,1.985l0.002,0.001l0.005,0.146l0.007,0.248l-0.004-0.002
				c0.016,0.928-0.03,1.869-0.079,2.782c-0.041,0.775-0.083,1.578-0.083,2.351c0,0.462,0.027,0.973,0.055,1.514
				C56.246,85.076,56.375,87.644,55.022,89.197z"/>
			<path fill="#FFFFFF" d="M62.674,90.828c-0.48,0.266-0.972,0.4-1.466,0.4c-0.655,0-1.266-0.242-1.768-0.699
				c-0.603-0.55-0.89-1.343-0.81-2.234c0.078-0.847,0.484-1.689,1.09-2.252c0.217-0.203,0.548-0.453,0.92-0.568l0.004-0.008
				l0.065-0.023c0.578-0.201,1.196-0.205,1.786-0.008c0.342,0.113,0.66,0.289,0.944,0.523l0.056,0.046l0.002,0.013
				c0.249,0.179,0.455,0.484,0.591,0.715c0.16,0.268,0.273,0.568,0.329,0.869C64.634,88.789,63.901,90.146,62.674,90.828z"/>
			<path fill="#3B2416" d="M95.294,87.561l0.012-0.006l-0.022,0.309l-0.009,0.117l-0.004,0.002c-0.071,0.807-0.238,1.457-0.504,1.98
				l0.007,0.008l-0.063,0.111c-0.015,0.033-0.023,0.051-0.033,0.065c-0.005,0.01-0.012,0.017-0.017,0.026l-0.087,0.156l-0.012-0.014
				c-0.127,0.188-0.268,0.359-0.428,0.502c-0.448,0.396-1.031,0.543-1.634,0.543c-0.922,0-1.893-0.343-2.499-0.652
				c-1.447-0.743-1.314-3.123-1.217-4.862c0.021-0.363,0.039-0.705,0.039-0.979v-6.156c0-0.565-0.292-1.19-0.78-1.671
				c-0.664-0.652-1.708-1.028-2.542-0.392c-1.624,1.235-1.529,3.583-1.447,5.654c0.017,0.422,0.032,0.825,0.032,1.199
				c0,0.279,0.005,0.582,0.01,0.895c0.035,2.293,0.077,5.145-1.454,6.279c-0.756,0.561-1.823,0.627-3.172,0.196
				c-1.126-0.359-1.416-1.21-1.525-1.856l-0.002-0.001l-0.013-0.085l-0.063-0.422l0.025,0.018c-0.02-0.27-0.03-0.541-0.031-0.807
				c-0.001-0.35-0.003-0.7-0.006-1.051l-0.002-0.393c-0.01-1.25-0.018-2.543,0.01-3.814c0.007-0.349,0.039-0.73,0.073-1.137
				c0.073-0.892,0.156-1.902-0.011-2.77c-0.126-0.647-0.374-1.138-0.756-1.497c-0.258-0.243-0.526-0.427-0.796-0.542
				c-0.501-0.219-1-0.199-1.484,0.055c-0.817,0.429-1.526,1.521-1.763,2.72c-0.327,1.653-0.185,3.346-0.048,4.981
				c0.067,0.799,0.136,1.625,0.152,2.441c0.006,0.375-0.011,0.741-0.045,1.093l0.004,0.003l-0.015,0.128l-0.032,0.28l-0.009-0.004
				c-0.139,0.917-0.435,1.636-0.884,2.139l0.024,0.008l-0.252,0.219c-0.001,0-0.001,0-0.001,0l-0.081,0.072l-0.011-0.004
				c-0.44,0.346-0.975,0.536-1.603,0.551c-0.566,0.016-1.972-0.047-2.807-0.916c-0.796-0.829-0.737-2.042-0.685-3.113
				c0.009-0.18,0.018-0.357,0.021-0.527c0.056-2.365-0.025-4.668-0.111-6.607c-0.03-0.675-0.009-1.33,0.054-1.953l-0.005-0.004
				l0.013-0.113l0.035-0.318l0.009,0.007c0.202-1.442,0.679-2.646,1.42-3.587l-0.018-0.002l0.23-0.262l0.07-0.078l0.009,0.001
				c0.635-0.687,1.431-1.222,2.376-1.58c2.623-0.995,5.81-0.954,8.529,0.11c0.237,0.092,0.487,0.24,0.75,0.395
				c0.444,0.264,0.948,0.561,1.284,0.487c0.069-0.015,0.139-0.038,0.21-0.062h0.001c0.336-0.114,0.702-0.322,1.056-0.523
				c0.211-0.119,0.43-0.241,0.645-0.348l-0.024-0.014l0.443-0.172c2.895-1.027,7.039-0.835,9.362,1.52
				c2,2.027,1.934,5.043,1.875,7.703c-0.01,0.443-0.019,0.877-0.019,1.297c0,0.482,0.054,1.106,0.112,1.768
				C95.252,85.329,95.346,86.478,95.294,87.561z"/>
			<path fill="#3B2416" d="M115.573,86.128l0.004,0.001l-0.004,0.129l-0.011,0.284l-0.008-0.005
				c-0.051,0.853-0.185,1.572-0.407,2.179l0.02-0.001l-0.122,0.281l-0.047,0.109h-0.007c-0.258,0.555-0.591,1.006-1.02,1.365
				c-0.936,0.786-2.215,0.973-3.344,1.137c-1.41,0.205-2.856,0.371-4.295,0.371c-1.456,0-2.903-0.17-4.299-0.637
				c-1.695-0.566-2.957-1.57-3.668-2.902l-0.008,0.002l-0.066-0.131l-0.111-0.223l0.016-0.003c-0.326-0.734-0.499-1.542-0.499-2.413
				c0-1.068,0.197-1.999,0.583-2.777l-0.009-0.002l0.123-0.219l0.072-0.127l0.005,0.001c0.238-0.392,0.524-0.739,0.855-1.03
				c1.495-1.313,3.464-1.555,5.013-1.619c0.125-0.005,0.257-0.009,0.393-0.014c1.24-0.038,2.939-0.091,3.607-1.182
				c0.217-0.354,0.289-0.66,0.216-0.915c-0.07-0.241-0.275-0.446-0.608-0.61h-0.001c-0.362-0.178-0.855-0.297-1.388-0.332
				c-0.4-0.029-0.815-0.006-1.269,0.07c-0.64,0.106-1.274,0.309-1.887,0.502c-0.743,0.237-1.512,0.48-2.328,0.574
				c-0.727,0.082-1.379-0.141-1.837-0.631c-0.506-0.542-0.716-1.36-0.563-2.188c0.388-2.093,2.363-3.34,5.284-3.34
				c0.01,0,0.02,0,0.03,0c0.797,0.003,1.573,0.036,2.303,0.101c2.921,0.259,5.059,1.027,6.538,2.34l0.007-0.004l0.104,0.096
				l0.189,0.176l-0.009,0.006c0.446,0.444,0.825,0.938,1.119,1.475c0.518,0.948,0.868,2.027,1.078,3.279l0.008-0.004l0.034,0.23
				l0.023,0.154l-0.003,0.002c0.129,0.926,0.182,1.928,0.153,2.988c-0.014,0.486,0.003,1.02,0.021,1.582
				C115.574,84.866,115.591,85.497,115.573,86.128z M103.732,85.48c0,0.555,0.2,0.98,0.613,1.301
				c0.368,0.286,0.962,0.449,1.767,0.486c0.118,0.006,0.24,0.008,0.368,0.007h0.021l0.021,0.005c0.635,0.136,1.31-0.039,1.851-0.479
				c0.533-0.432,0.852-1.051,0.849-1.653c0-0.095-0.01-0.187-0.027-0.271c-0.433-1.033-1.406-1.073-2.347-1.112l-0.102-0.004
				l-0.476,0.039c-0.78,0.073-1.416,0.251-1.886,0.527C103.944,84.586,103.731,84.962,103.732,85.48z"/>
			<path fill="#3B2416" d="M131.552,74.328l-0.037,0.219l-0.027,0.162h-0.011c-0.082,0.331-0.229,0.637-0.451,0.908
				c-0.768,0.938-1.798,0.938-2.793,0.939c-0.538,0-1.092,0-1.593,0.153c-1.863,0.57-1.902,2.883-1.931,4.57l-0.003,0.175
				c-0.014,0.781,0.029,1.576,0.071,2.346c0.046,0.842,0.093,1.713,0.067,2.575l-0.009,0.298c-0.031,1.152-0.065,2.457-0.709,3.451
				c-0.125,0.195-0.273,0.373-0.436,0.527c-0.493,0.467-1.17,0.714-1.921,0.714c-0.179,0-0.363-0.019-0.548-0.046l-0.003,0.004
				l-0.125-0.023c0,0-0.001,0-0.002,0l-0.28-0.053l0.011-0.016c-0.259-0.067-0.508-0.15-0.733-0.263
				c-1.274-0.64-1.498-1.827-1.526-3.033h-0.002l-0.004-0.236c-0.019-1.115-0.075-2.253-0.129-3.353
				c-0.046-0.926-0.093-1.881-0.118-2.824h-0.001l-0.002-0.104l-0.009-0.359l0.005,0.003c-0.009-0.552-0.008-1.095,0.005-1.624
				l-0.006,0.004l0.012-0.361l0.003-0.102h0.001c0.027-0.775,0.071-1.42,0.139-2.014c0.314-2.762,2.418-4.118,4.129-4.768
				c3.21-1.221,5.78-1.273,7.648-0.168l0.003-0.005l0.167,0.104c0.004,0.003,0.008,0.007,0.013,0.009l0.146,0.094l-0.007,0.01
				c0.671,0.506,1.038,1.288,0.982,2.086H131.552z"/>
			<path fill="#3B2416" d="M150.009,90.578l0.038,0.01l-0.378,0.242l-0.069,0.043l-0.005-0.001
				c-0.639,0.385-1.376,0.542-2.094,0.436c-2.254-0.336-4.044-2.705-5.484-4.608c-0.383-0.508-0.744-0.986-1.088-1.395l-0.173-0.204
				c-0.03-0.017-0.063-0.038-0.095-0.061l-0.008,0.011l-0.155-0.14l-0.131-0.116l0.007-0.008c-0.096-0.105-0.206-0.251-0.271-0.426
				c-0.269,0.215-0.417,0.533-0.465,0.986c-0.045,0.428,0.006,0.918,0.055,1.391c0.058,0.522,0.107,1.016,0.039,1.43
				c-0.269,1.588-1.49,3.199-3.26,3.199c-0.074,0-0.151-0.004-0.229-0.01c-1.252-0.098-2.096-0.824-2.513-2.15l-0.008,0.003
				l-0.048-0.171l0,0l-0.055-0.197l0.005-0.002c-0.154-0.648-0.229-1.423-0.227-2.4h-0.002l0.002-0.193l0.002-0.189h0.002
				c0.006-0.398,0.021-0.788,0.036-1.15c0.017-0.374,0.03-0.721,0.033-1.02c0.011-1.471,0.047-2.964,0.083-4.408
				c0.042-1.627,0.084-3.311,0.085-4.966v-0.246c0.003-1.032,0.005-2.099-0.074-3.138c-0.014-0.191-0.032-0.387-0.051-0.582
				c-0.067-0.698-0.133-1.419-0.035-2.117l-0.002-0.006l0.005-0.04l0.133-0.882l0.047,0.166c0.074-0.205,0.166-0.397,0.276-0.579
				c0.417-0.677,1.077-1.181,1.865-1.444l-0.144-0.046l0.822-0.119l0.044-0.006l0.003,0.002c0.478-0.064,0.932-0.045,1.353,0.059
				c2.378,0.585,2.188,3.991,2.062,6.247c-0.024,0.433-0.045,0.807-0.047,1.117c0,0.346-0.094,0.848-0.203,1.429
				c-0.254,1.37-0.603,3.247,0.205,3.765c0.672,0.428,1.734-0.805,2.245-1.398l0.154-0.178c0.317-0.359,0.632-0.74,0.934-1.107
				c0.627-0.758,1.273-1.539,2.02-2.211l-0.003-0.006l0.101-0.087c0.001-0.001,0.001-0.001,0.001-0.002l0.203-0.177l0.002,0.004
				c0.134-0.111,0.264-0.215,0.386-0.306c0.702-0.518,1.486-0.931,2.472-0.469c0.452,0.214,0.84,0.453,1.159,0.714l0.005-0.015
				l0.21,0.197c0,0,0.001,0.001,0.002,0.002l0.089,0.085l-0.001,0.006c0.54,0.547,0.812,1.18,0.799,1.885
				c-0.022,1.542-1.383,2.663-2.478,3.563c-0.17,0.142-0.334,0.277-0.488,0.41c-0.09,0.076-0.195,0.156-0.314,0.24l0.003,0.003
				l-0.166,0.11l-0.15,0.102l-0.004-0.003c-0.118,0.075-0.238,0.15-0.36,0.227c-0.681,0.417-1.382,0.849-1.643,1.521
				c-0.032,0.084-0.051,0.17-0.054,0.26c-0.009,0.332,0.185,0.711,0.591,1.158h0.003c0.309,0.338,0.687,0.652,0.987,0.904
				c0.111,0.091,0.213,0.175,0.3,0.25c0.677,0.592,1.405,1.146,2.108,1.684c0.268,0.205,0.536,0.41,0.803,0.617h0.002l0.254,0.197
				c0.004,0.004,0.008,0.008,0.012,0.012l0.149,0.116l-0.014,0.001c0.633,0.563,0.963,1.283,0.924,2.051
				C151.1,89.242,150.674,90.025,150.009,90.578z"/>
			<path fill="#3B2416" d="M170.364,89.329l-0.255,0.338c0,0.001,0,0.002,0,0.002l-0.052,0.066l-0.01,0.001
				c-0.835,1.01-2.297,1.642-3.315,1.877c-1.066,0.244-2.149,0.365-3.215,0.365c-2.386,0-4.688-0.604-6.514-1.752
				c-2.052-1.293-3.417-3.227-3.948-5.591c-0.087-0.396-0.156-0.829-0.211-1.284l-0.007,0.003l-0.027-0.271l-0.015-0.133
				l0.002-0.002c-0.069-0.756-0.072-1.516-0.011-2.262l-0.004-0.002l0.013-0.133l0.025-0.271l0.009,0.005
				c0.121-1.046,0.358-2.005,0.724-2.848c0.605-1.398,1.54-2.573,2.776-3.493V73.94l0.066-0.049l0.354-0.259l-0.003,0.016
				c0.848-0.56,1.79-0.98,2.812-1.254l-0.011-0.008l0.415-0.094l0.084-0.019l0.003,0.002c1.796-0.39,3.663-0.311,5.406,0.235
				c3.566,1.113,5.226,3.639,4.799,7.299c-0.361,3.114-4.479,3.674-6.028,3.885c-0.36,0.049-0.729,0.086-1.096,0.121
				c-0.925,0.089-1.881,0.181-2.745,0.504c-0.331,0.123-0.563,0.323-0.677,0.58c-0.104,0.236-0.098,0.512,0.013,0.795l0.002,0.002
				c0.083,0.211,0.215,0.404,0.393,0.574c0.321,0.311,0.735,0.551,1.235,0.72c1.82,0.618,4.36,0.095,5.95-0.652
				c0.105-0.05,0.227-0.091,0.347-0.132l0.005-0.008l0.08-0.025l0.413-0.126l-0.017,0.033c0.797-0.136,1.732,0.015,2.194,0.849
				c0.455,0.821,0.457,1.645,0.013,2.4L170.364,89.329z M162.686,76.733c-1.132,0.013-2.209,0.388-2.952,1.028
				c-0.412,0.355-0.612,0.826-0.548,1.289c0.062,0.443,0.366,0.822,0.833,1.038c1.229,0.567,3.322,0.04,4.432-0.454
				c0.224-0.1,0.444-0.24,0.637-0.408l0.001-0.001c0.333-0.288,0.524-0.612,0.539-0.911c0.012-0.23-0.079-0.453-0.274-0.66
				c-0.169-0.182-0.378-0.338-0.637-0.477C164.163,76.881,163.438,76.727,162.686,76.733z"/>
			<path fill="#3B2416" d="M184.945,88.028l0.011-0.001v0.223l-0.002,0.164l-0.013,0.002c-0.036,0.542-0.221,1.061-0.543,1.474
				c-0.914,1.168-2.544,1.391-3.691,1.457c-0.209,0.012-0.442,0.021-0.698,0.021c-1.452,0-3.559-0.265-5.061-1.576l-0.433-0.378
				l0.052,0.005c-0.181-0.197-0.348-0.406-0.49-0.627c-0.063-0.1-0.124-0.209-0.184-0.322l-0.011,0.039l-0.212-0.521
				c0-0.001,0-0.002,0-0.003l-0.024-0.061V87.92c-0.501-1.276-0.504-2.676-0.505-4.031c-0.001-1.266-0.001-2.53,0-3.797v-2.069
				c0-0.512,0.001-1.024,0.002-1.536c0.004-0.798,0.005-1.594,0.002-2.391c-0.003-0.688-0.01-1.375-0.027-2.061l-0.012-0.432
				l0.002,0.002c-0.04-1.402-0.055-3.254,1.373-4.141c0.669-0.416,1.494-0.556,2.274-0.395l0.007-0.002l0.052,0.012
				c0.001,0,0.001,0,0.001,0l0.659,0.149l-0.104,0.035c0.134,0.059,0.267,0.122,0.388,0.198c0.267,0.167,0.486,0.365,0.67,0.588
				l0.008-0.155l0.325,0.663l0.022,0.044v0.008c0.258,0.559,0.336,1.188,0.413,1.855l0.012,0.099
				c0.182,1.552,1.26,1.673,2.508,1.813c0.668,0.075,1.359,0.153,1.944,0.465c0.88,0.469,1.458,1.727,1.288,2.804
				c-0.245,1.544-1.584,1.663-2.632,1.704l0,0l-0.28,0.01c-0.453,0.016-0.882,0.029-1.249,0.113
				c-0.738,0.167-1.228,0.633-1.493,1.425v0.001c-0.383,1.134-0.229,2.711-0.105,3.979c0.043,0.44,0.083,0.858,0.096,1.204
				c0.027,0.746,0.274,1.317,0.733,1.699c0.643,0.529,1.559,0.581,2.211,0.528c0.165-0.013,0.331-0.03,0.498-0.059
				c0.616-0.103,1.153,0.023,1.555,0.365C184.666,86.941,184.902,87.448,184.945,88.028z"/>
		</g>
		<g>
			<g>
				<path fill="#3B2416" d="M201.151,97.688l-0.247-0.033c-2.027-0.277-5.891-1.938-6.007-6.244
					c-0.089-3.336-1.959-20.006-2.102-21.285c-0.111-0.646-0.349-2.898,1.276-4.927c1.778-2.217,4.992-3.218,9.579-2.972
					c9.775,0.526,38.028,1.862,38.313,1.875l0.229,0.023c0.586,0.089,3.577,0.647,4.918,2.814c0.672,1.086,0.808,2.344,0.393,3.639
					c-0.896,2.797-5.421,17.832-5.723,18.834c-0.237,0.92-1.488,4.178-7.388,4.981c-5.088,0.692-31.856,3.167-32.992,3.272
					L201.151,97.688z M202.317,66.569c-2.404,0-4.119,0.486-4.825,1.369c-0.5,0.623-0.393,1.38-0.392,1.388l0.04,0.232
					c0.081,0.738,2.038,18.098,2.136,21.735c0.037,1.386,1.418,1.847,2.023,1.983c3.029-0.281,27.791-2.58,32.501-3.223
					c2.976-0.404,3.708-1.586,3.71-1.597l0.06-0.255c0.197-0.653,4.827-16.043,5.762-18.96c0.008-0.019,0.012-0.034,0.016-0.047
					c-0.25-0.269-1.106-0.608-1.721-0.723c-2.11-0.1-28.765-1.363-38.211-1.871C203.031,66.58,202.665,66.569,202.317,66.569z"/>
			</g>
			<g>
				<rect x="204.728" y="61.579" fill="#F9A61C" width="31.173" height="9.04"/>
			</g>
			<g>
				<g>
					<path fill="#F9A61C" d="M223.934,90.199c-1.092,0-2.719-0.332-4.274-1.921c-0.543-0.556-1.016-1.063-1.443-1.521
						c-1.83-1.961-2.275-2.347-3.371-2.396c-0.835,0.056-1.927,0.89-2.332,1.295l-0.395,0.394l-0.544,0.165
						c-0.148,0.044-1.507,0.429-3.119,0.429c-3.021,0-5.187-1.391-5.958-3.818c-1.187-3.324,0.203-10.125,5.671-14.491
						c-0.646,0.319-1.351,0.48-2.096,0.48c0,0,0,0-0.001,0c-2.315,0-4.676-1.615-6.012-4.115c-0.82-1.535-1.168-3.234-0.978-4.787
						c0.221-1.811,1.167-3.288,2.596-4.051c0.683-0.366,1.435-0.551,2.232-0.551c2.315,0,4.676,1.615,6.012,4.114
						c0.82,1.534,1.168,3.234,0.979,4.787c-0.156,1.276-0.672,2.386-1.463,3.197c2.188-1.433,5.312-2.322,8.25-2.322
						c5.152,0,9.2,2.537,11.394,7.144l0.023,0.049c2.155,4.836,2.568,9.637,1.165,13.521l-0.074,0.18
						C229.241,88.027,226.725,90.199,223.934,90.199C223.934,90.199,223.934,90.199,223.934,90.199z M214.842,79.979l0.064,0.001
						c3.063,0.094,4.585,1.725,6.512,3.787c0.406,0.438,0.857,0.919,1.372,1.447c0.588,0.602,1.003,0.604,1.143,0.604
						c0.001,0,0.001,0,0.001,0c0.843,0,1.896-0.936,2.254-1.612c0.967-2.792,0.588-6.378-1.073-10.114
						c-1.831-3.82-5.049-4.623-7.427-4.623c-2.502,0-4.859,0.889-6.087,1.77c-4.822,3.34-5.52,8.66-4.975,10.123l0.042,0.125
						c0.07,0.232,0.238,0.777,1.787,0.777c0.561,0,1.092-0.08,1.446-0.15c0.869-0.742,2.722-2.074,4.879-2.133L214.842,79.979z
						 M203.91,59.692c-0.094,0-0.141,0.02-0.168,0.034c-0.145,0.077-0.27,0.366-0.313,0.719c-0.08,0.656,0.099,1.454,0.493,2.189
						c0.701,1.312,1.69,1.801,2.149,1.801c0.093,0,0.14-0.02,0.167-0.034c0.12-0.063,0.262-0.311,0.313-0.719
						c0.079-0.656-0.1-1.454-0.493-2.189C205.357,60.181,204.37,59.692,203.91,59.692z M233.781,75.109
						C233.78,75.109,233.78,75.109,233.781,75.109c-1.415,0-2.694-0.514-3.606-1.445c-2.19-2.244-1.696-6.158,1.123-8.913
						c1.534-1.498,3.479-2.356,5.334-2.356c1.414,0,2.694,0.513,3.604,1.445c2.19,2.245,1.695,6.16-1.124,8.914
						C237.58,74.251,235.636,75.109,233.781,75.109z M236.632,66.774c-0.549,0-1.436,0.292-2.272,1.111
						c-1.232,1.203-1.296,2.466-1.05,2.718c0.109,0.113,0.365,0.125,0.471,0.125h0.001c0.548,0,1.433-0.291,2.27-1.109
						c1.232-1.203,1.297-2.467,1.053-2.72C236.992,66.788,236.736,66.774,236.632,66.774z M226.648,65.604
						C226.647,65.604,226.647,65.604,226.648,65.604c-0.546,0-1.077-0.099-1.576-0.291c-1.563-0.602-2.665-2.068-3.028-4.024
						c-0.295-1.6-0.086-3.446,0.59-5.2c1.266-3.287,3.847-5.496,6.423-5.496c0.544,0,1.075,0.098,1.575,0.292
						c1.562,0.6,2.665,2.067,3.028,4.024c0.295,1.6,0.087,3.448-0.59,5.201C231.806,63.396,229.225,65.604,226.648,65.604z
						 M229.047,54.966c-0.373,0.007-1.589,0.781-2.326,2.697c-0.771,2.002-0.314,3.397-0.063,3.567l-0.009-0.007
						c0.382,0,1.598-0.773,2.334-2.688C229.754,56.531,229.299,55.136,229.047,54.966z M215.738,63.17L215.738,63.17l-0.134-0.001
						c-1.674-0.052-3.2-1.071-4.187-2.799c-0.808-1.412-1.221-3.225-1.162-5.103c0.133-4.309,2.583-7.558,5.695-7.558l0.133,0.002
						c3.135,0.096,5.486,3.567,5.352,7.901C221.301,59.922,218.852,63.17,215.738,63.17z M215.938,52.088
						c-0.275,0.06-1.238,1.169-1.305,3.315c-0.065,2.117,0.804,3.283,1.107,3.385c0.309-0.082,1.25-1.19,1.316-3.311
						C217.124,53.333,216.23,52.166,215.938,52.088z"/>
				</g>
				<g>
					<path fill="#3B2416" d="M227.104,73.174c1.777,3.985,2.403,8.292,1.105,11.885c-0.819,1.759-4.112,4.622-6.984,1.688
						c-2.87-2.935-3.746-4.495-6.386-4.575c-2.024,0.054-3.881,1.944-3.881,1.944s-5.302,1.555-6.385-1.99
						c-0.991-2.662,0.404-8.963,5.75-12.666C213.997,66.823,223.276,65.142,227.104,73.174z M207.99,60.459
						c-1.26-2.357-3.624-3.55-5.28-2.664c-1.658,0.885-1.979,3.515-0.719,5.872c1.26,2.358,3.625,3.551,5.282,2.665
						C208.929,65.446,209.253,62.817,207.99,60.459z M238.669,65.371c-1.313-1.345-3.927-0.921-5.841,0.948
						c-1.912,1.868-2.398,4.471-1.087,5.815c1.315,1.345,3.929,0.921,5.841-0.947C239.494,69.319,239.982,66.715,238.669,65.371z
						 M225.86,63.27c1.754,0.675,4.066-1.092,5.167-3.948c1.101-2.857,0.57-5.72-1.183-6.395c-1.754-0.676-4.068,1.091-5.168,3.948
						C223.577,59.731,224.105,62.595,225.86,63.27z M215.672,60.979c1.88,0.059,3.479-2.374,3.574-5.434
						c0.094-3.06-1.352-5.587-3.229-5.645c-1.88-0.058-3.478,2.375-3.574,5.434C212.35,58.394,213.795,60.922,215.672,60.979z"/>
				</g>
			</g>
			<g>
				<path fill="#3B2416" d="M195.026,72.631c-1.195,0-2.174-0.961-2.189-2.16l-0.049-3.522l-14.73-5.931
					c-1.121-0.453-1.664-1.728-1.213-2.85c0.452-1.122,1.729-1.664,2.851-1.213l16.08,6.476c0.819,0.329,1.36,1.118,1.372,2.001
					l0.069,4.979c0.017,1.209-0.951,2.203-2.16,2.221C195.047,72.631,195.036,72.631,195.026,72.631z"/>
			</g>
			<g>
				<circle fill="#3B2416" cx="207.664" cy="101.664" r="3.792"/>
			</g>
			<g>
				<circle fill="#3B2416" cx="229.194" cy="101.664" r="4.593"/>
			</g>
		</g>
		<g>
			<path fill="#231F20" d="M89.96,98.748c0-0.641,0.205-1.186,0.612-1.631c0.408-0.447,0.914-0.67,1.518-0.67
				c0.706,0,1.243,0.283,1.612,0.851v-0.761h0.688v4.412h-0.688v-0.753c-0.363,0.563-0.9,0.843-1.612,0.843
				c-0.604,0-1.11-0.223-1.518-0.67C90.165,99.922,89.96,99.382,89.96,98.748z M91.106,97.588c-0.293,0.313-0.439,0.701-0.439,1.16
				s0.146,0.844,0.439,1.154s0.657,0.467,1.092,0.467c0.422,0,0.779-0.154,1.069-0.463c0.289-0.307,0.435-0.693,0.435-1.158
				c0-0.459-0.144-0.847-0.43-1.16c-0.288-0.314-0.645-0.471-1.074-0.471C91.763,97.117,91.399,97.273,91.106,97.588z"/>
			<path fill="#231F20" d="M97.796,100.949v-5.961h0.688v5.961H97.796z"/>
			<path fill="#231F20" d="M99.454,98.748c0-0.635,0.226-1.176,0.679-1.627c0.454-0.449,1-0.674,1.64-0.674
				c0.64,0,1.187,0.225,1.639,0.674c0.454,0.451,0.68,0.992,0.68,1.627c0,0.628-0.226,1.167-0.68,1.617
				c-0.452,0.449-0.999,0.674-1.639,0.674c-0.64,0-1.186-0.225-1.64-0.674C99.68,99.915,99.454,99.376,99.454,98.748z
				 M100.631,97.597c-0.314,0.32-0.471,0.704-0.471,1.151c0,0.445,0.157,0.828,0.471,1.146s0.694,0.476,1.142,0.476
				c0.447,0,0.827-0.158,1.142-0.476c0.314-0.317,0.471-0.7,0.471-1.146c0-0.447-0.157-0.831-0.471-1.151
				c-0.315-0.319-0.695-0.479-1.142-0.479C101.326,97.117,100.945,97.277,100.631,97.597z"/>
			<path fill="#231F20" d="M104.554,102.471l-0.235-0.544c0.495-0.296,0.743-0.852,0.743-1.667v-3.723h0.688v3.65
				C105.75,101.312,105.352,102.072,104.554,102.471z M104.962,95.35c0-0.126,0.043-0.235,0.131-0.326
				c0.087-0.09,0.194-0.135,0.322-0.135c0.126,0,0.234,0.045,0.321,0.135c0.087,0.091,0.132,0.2,0.132,0.326
				c0,0.121-0.044,0.227-0.132,0.317s-0.195,0.136-0.321,0.136c-0.127,0-0.235-0.045-0.322-0.136
				C105.005,95.576,104.962,95.471,104.962,95.35z"/>
			<path fill="#231F20" d="M106.72,98.748c0-0.641,0.203-1.186,0.611-1.631c0.407-0.447,0.913-0.67,1.517-0.67
				c0.707,0,1.245,0.283,1.612,0.851v-0.761h0.688v4.412h-0.688v-0.753c-0.361,0.563-0.899,0.843-1.612,0.843
				c-0.604,0-1.11-0.223-1.517-0.67C106.923,99.922,106.72,99.382,106.72,98.748z M107.865,97.588
				c-0.292,0.313-0.439,0.701-0.439,1.16s0.146,0.844,0.439,1.154c0.293,0.311,0.657,0.467,1.092,0.467
				c0.423,0,0.779-0.154,1.069-0.463c0.291-0.307,0.435-0.693,0.435-1.158c0-0.459-0.143-0.847-0.43-1.16
				c-0.287-0.314-0.645-0.471-1.074-0.471C108.522,97.117,108.158,97.273,107.865,97.588z"/>
			<path fill="#231F20" d="M114.329,98.748c0-0.635,0.226-1.176,0.68-1.627c0.452-0.449,0.999-0.674,1.639-0.674
				c0.64,0,1.186,0.225,1.64,0.674c0.453,0.451,0.679,0.992,0.679,1.627c0,0.628-0.226,1.167-0.679,1.617
				c-0.454,0.449-1,0.674-1.64,0.674c-0.64,0-1.187-0.225-1.639-0.674C114.555,99.915,114.329,99.376,114.329,98.748z
				 M115.506,97.597c-0.314,0.32-0.471,0.704-0.471,1.151c0,0.445,0.157,0.828,0.471,1.146c0.313,0.317,0.694,0.476,1.142,0.476
				c0.447,0,0.828-0.158,1.142-0.476s0.471-0.7,0.471-1.146c0-0.447-0.157-0.831-0.471-1.151c-0.314-0.319-0.695-0.479-1.142-0.479
				C116.201,97.117,115.82,97.277,115.506,97.597z"/>
			<path fill="#231F20" d="M119.936,100.949v-4.412h0.688v0.707c0.332-0.531,0.833-0.797,1.504-0.797
				c0.536,0,0.941,0.158,1.213,0.475c0.272,0.318,0.408,0.762,0.408,1.336v2.691h-0.688v-2.582c0-0.411-0.085-0.722-0.258-0.934
				c-0.171-0.211-0.457-0.316-0.855-0.316c-0.362,0-0.674,0.129-0.933,0.385c-0.26,0.257-0.39,0.581-0.39,0.975v2.473H119.936z"/>
			<path fill="#231F20" d="M124.855,100.949v-5.961h0.688v5.961H124.855z"/>
			<path fill="#231F20" d="M126.639,95.35c0-0.126,0.044-0.235,0.132-0.326c0.087-0.09,0.195-0.135,0.322-0.135
				s0.233,0.045,0.321,0.135c0.088,0.091,0.131,0.2,0.131,0.326c0,0.121-0.043,0.227-0.131,0.317s-0.194,0.136-0.321,0.136
				s-0.234-0.045-0.322-0.136S126.639,95.471,126.639,95.35z M126.739,100.949v-4.412h0.688v4.412H126.739z"/>
			<path fill="#231F20" d="M128.623,100.949v-4.412h0.688v0.707c0.333-0.531,0.834-0.797,1.504-0.797
				c0.537,0,0.943,0.158,1.214,0.475c0.272,0.318,0.408,0.762,0.408,1.336v2.691h-0.688v-2.582c0-0.411-0.086-0.722-0.258-0.934
				c-0.172-0.211-0.458-0.316-0.856-0.316c-0.363,0-0.673,0.129-0.934,0.385c-0.259,0.257-0.39,0.581-0.39,0.975v2.473H128.623z"/>
			<path fill="#231F20" d="M133.317,98.748c0-0.635,0.213-1.176,0.643-1.627c0.429-0.449,0.951-0.674,1.566-0.674
				c0.58,0,1.078,0.223,1.495,0.67c0.416,0.445,0.626,0.978,0.626,1.595l-0.02,0.29h-3.587c0.055,0.422,0.232,0.763,0.534,1.022
				c0.301,0.261,0.658,0.39,1.069,0.39c0.531,0,0.983-0.168,1.358-0.508l0.326,0.5c-0.501,0.422-1.063,0.633-1.685,0.633
				c-0.647,0-1.195-0.214-1.648-0.643S133.317,99.418,133.317,98.748z M134.032,98.459h2.916c-0.042-0.405-0.199-0.74-0.475-1.002
				c-0.275-0.264-0.6-0.395-0.975-0.395c-0.368,0-0.691,0.133-0.969,0.398S134.087,98.059,134.032,98.459z"/>
			<path fill="#231F20" d="M140.6,98.748c0-0.641,0.204-1.186,0.612-1.631c0.407-0.447,0.912-0.67,1.517-0.67
				c0.332,0,0.637,0.074,0.915,0.226c0.277,0.151,0.501,0.36,0.67,0.625v-2.31h0.688v5.961h-0.688v-0.753
				c-0.169,0.267-0.391,0.473-0.666,0.621c-0.274,0.147-0.581,0.222-0.919,0.222c-0.604,0-1.109-0.223-1.517-0.67
				C140.804,99.922,140.6,99.382,140.6,98.748z M141.74,97.588c-0.289,0.313-0.435,0.701-0.435,1.16s0.146,0.844,0.435,1.154
				c0.292,0.311,0.649,0.467,1.079,0.467c0.423,0,0.777-0.152,1.064-0.457s0.43-0.693,0.43-1.164c0-0.459-0.143-0.847-0.43-1.16
				c-0.287-0.314-0.642-0.471-1.064-0.471C142.39,97.117,142.032,97.273,141.74,97.588z"/>
			<path fill="#231F20" d="M145.972,98.748c0-0.635,0.227-1.176,0.679-1.627c0.453-0.449,1-0.674,1.64-0.674
				c0.641,0,1.188,0.225,1.641,0.674c0.452,0.451,0.679,0.992,0.679,1.627c0,0.628-0.227,1.167-0.679,1.617
				c-0.453,0.449-1,0.674-1.641,0.674c-0.64,0-1.187-0.225-1.64-0.674C146.198,99.915,145.972,99.376,145.972,98.748z
				 M147.148,97.597c-0.313,0.32-0.471,0.704-0.471,1.151c0,0.445,0.157,0.828,0.471,1.146c0.314,0.317,0.695,0.476,1.142,0.476
				c0.447,0,0.828-0.158,1.142-0.476s0.472-0.7,0.472-1.146c0-0.447-0.158-0.831-0.472-1.151c-0.313-0.319-0.694-0.479-1.142-0.479
				C147.844,97.117,147.463,97.277,147.148,97.597z"/>
			<path fill="#231F20" d="M153.563,100.351l0.335-0.553c0.369,0.38,0.831,0.571,1.386,0.571c0.314,0,0.577-0.063,0.789-0.186
				c0.211-0.124,0.317-0.285,0.317-0.485c0-0.103-0.03-0.192-0.087-0.271c-0.057-0.077-0.145-0.145-0.262-0.198
				c-0.118-0.056-0.228-0.098-0.327-0.127c-0.1-0.03-0.233-0.067-0.404-0.109c-0.246-0.061-0.444-0.116-0.593-0.168
				c-0.147-0.051-0.306-0.125-0.474-0.222c-0.171-0.096-0.294-0.22-0.373-0.366c-0.078-0.148-0.117-0.326-0.117-0.531
				c0-0.373,0.163-0.678,0.49-0.91c0.326-0.232,0.691-0.348,1.096-0.348c0.537,0,1.043,0.162,1.522,0.488l-0.336,0.535
				c-0.345-0.236-0.737-0.354-1.179-0.354c-0.234,0-0.441,0.056-0.619,0.168c-0.179,0.111-0.269,0.248-0.269,0.412
				c0,0.096,0.023,0.18,0.073,0.253c0.048,0.071,0.131,0.134,0.249,0.187c0.119,0.051,0.218,0.086,0.299,0.107
				c0.082,0.021,0.21,0.054,0.386,0.097c0.24,0.054,0.441,0.108,0.603,0.167c0.159,0.057,0.326,0.135,0.501,0.235
				c0.176,0.099,0.308,0.228,0.396,0.385c0.087,0.157,0.131,0.341,0.131,0.553c0,0.44-0.182,0.778-0.543,1.009
				c-0.363,0.233-0.783,0.35-1.26,0.35C154.574,101.039,153.998,100.811,153.563,100.351z"/>
			<path fill="#231F20" d="M157.839,98.748c0-0.635,0.214-1.176,0.643-1.627c0.43-0.449,0.951-0.674,1.567-0.674
				c0.58,0,1.078,0.223,1.495,0.67c0.416,0.445,0.625,0.978,0.625,1.595l-0.019,0.29h-3.588c0.055,0.422,0.232,0.763,0.535,1.022
				c0.303,0.261,0.658,0.39,1.068,0.39c0.532,0,0.985-0.168,1.359-0.508l0.326,0.5c-0.501,0.422-1.063,0.633-1.686,0.633
				c-0.646,0-1.195-0.214-1.647-0.643C158.065,99.968,157.839,99.418,157.839,98.748z M158.554,98.459h2.917
				c-0.042-0.405-0.201-0.74-0.475-1.002c-0.274-0.264-0.601-0.395-0.974-0.395c-0.369,0-0.691,0.133-0.971,0.398
				C158.775,97.727,158.608,98.059,158.554,98.459z"/>
			<path fill="#231F20" d="M163.046,99.264v-2.727h0.69v2.582c0,0.833,0.376,1.25,1.132,1.25c0.361,0,0.661-0.123,0.896-0.372
				c0.235-0.247,0.354-0.582,0.354-1.005v-2.455h0.688v4.412h-0.688v-0.68c-0.313,0.514-0.788,0.77-1.423,0.77
				c-0.537,0-0.945-0.165-1.228-0.494C163.188,100.217,163.046,99.789,163.046,99.264z"/>
			<path fill="#231F20" d="M170.214,102.189v-5.652h0.688v0.761c0.169-0.265,0.392-0.474,0.671-0.625
				c0.276-0.151,0.585-0.226,0.923-0.226c0.604,0,1.109,0.223,1.514,0.67c0.403,0.445,0.607,0.99,0.607,1.631
				c0,0.634-0.204,1.174-0.607,1.621c-0.404,0.447-0.909,0.67-1.514,0.67c-0.325,0-0.629-0.076-0.911-0.23
				c-0.28-0.154-0.509-0.357-0.683-0.612v1.993H170.214z M171.332,97.588c-0.287,0.313-0.431,0.701-0.431,1.16
				s0.144,0.844,0.431,1.154s0.645,0.467,1.073,0.467s0.787-0.156,1.073-0.467s0.43-0.695,0.43-1.154s-0.144-0.847-0.43-1.16
				c-0.286-0.314-0.645-0.471-1.073-0.471S171.619,97.273,171.332,97.588z"/>
			<path fill="#231F20" d="M175.358,98.748c0-0.635,0.215-1.176,0.644-1.627c0.428-0.449,0.95-0.674,1.566-0.674
				c0.579,0,1.078,0.223,1.495,0.67c0.417,0.445,0.624,0.978,0.624,1.595l-0.017,0.29h-3.589c0.056,0.422,0.233,0.763,0.536,1.022
				c0.301,0.261,0.656,0.39,1.068,0.39c0.532,0,0.983-0.168,1.359-0.508l0.326,0.5c-0.502,0.422-1.064,0.633-1.686,0.633
				c-0.646,0-1.196-0.214-1.649-0.643C175.585,99.968,175.358,99.418,175.358,98.748z M176.074,98.459h2.917
				c-0.042-0.405-0.201-0.74-0.477-1.002c-0.274-0.264-0.599-0.395-0.973-0.395c-0.368,0-0.692,0.133-0.97,0.398
				C176.294,97.727,176.128,98.059,176.074,98.459z"/>
			<path fill="#231F20" d="M180.839,99.625v-2.499h-0.662v-0.589h0.662v-0.979l0.689-0.108v1.087h1.513v0.589h-1.513v2.373
				c0,0.616,0.207,0.925,0.625,0.925c0.121,0,0.241-0.021,0.362-0.064c0.119-0.041,0.21-0.081,0.272-0.117l0.09-0.064l0.226,0.535
				c-0.321,0.219-0.658,0.326-1.015,0.326c-0.387,0-0.691-0.116-0.914-0.35C180.95,100.459,180.839,100.104,180.839,99.625z"/>
		</g>
	</g>
</g>
</svg>
